<svg xmlns="http://www.w3.org/2000/svg" width="240" height="320" viewBox="0 0 240 320">
  <rect width="240" height="320" fill="#ead6aa"/>
  <filter id="n"><feTurbulence type="fractalNoise" baseFrequency=".8" numOctaves="3" stitchTiles="stitch"/><feColorMatrix type="saturate" values=".2"/><feComponentTransfer><feFuncA type="table" tableValues="0 .28"/></feComponentTransfer></filter>
  <rect width="240" height="320" filter="url(#n)"/>
  <g fill="none" stroke="#9f2f33" stroke-width="3" stroke-linecap="round" stroke-linejoin="round">
    <path d="M120 67v112"/>
    <path d="M120 89c-28 13-43 34-45 62 22-6 37-20 45-42 8 22 23 36 45 42-2-28-17-49-45-62Z"/>
    <path d="M92 198c18-16 38-16 56 0m-72 18c29-24 59-24 88 0m-55 20h22m-11-57c-28 23-44 47-48 72m48-72c28 23 44 47 48 72"/>
  </g>
</svg>
